<svg width="35" height="35" viewBox="0 0 35 35" fill="none" xmlns="http://www.w3.org/2000/svg">
<path d="M17.5 29.1667C16.6979 29.1667 16.0113 28.8811 15.4401 28.3099C14.8689 27.7387 14.5833 27.0521 14.5833 26.25C14.5833 25.4479 14.8689 24.7613 15.4401 24.1901C16.0113 23.6189 16.6979 23.3333 17.5 23.3333C18.3021 23.3333 18.9887 23.6189 19.5599 24.1901C20.1311 24.7613 20.4166 25.4479 20.4166 26.25C20.4166 27.0521 20.1311 27.7387 19.5599 28.3099C18.9887 28.8811 18.3021 29.1667 17.5 29.1667ZM17.5 20.4167C16.6979 20.4167 16.0113 20.1311 15.4401 19.5599C14.8689 18.9887 14.5833 18.3021 14.5833 17.5C14.5833 16.6979 14.8689 16.0113 15.4401 15.4401C16.0113 14.8689 16.6979 14.5833 17.5 14.5833C18.3021 14.5833 18.9887 14.8689 19.5599 15.4401C20.1311 16.0113 20.4166 16.6979 20.4166 17.5C20.4166 18.3021 20.1311 18.9887 19.5599 19.5599C18.9887 20.1311 18.3021 20.4167 17.5 20.4167ZM17.5 11.6667C16.6979 11.6667 16.0113 11.3811 15.4401 10.8099C14.8689 10.2387 14.5833 9.55209 14.5833 8.75001C14.5833 7.94793 14.8689 7.26129 15.4401 6.69011C16.0113 6.11893 16.6979 5.83334 17.5 5.83334C18.3021 5.83334 18.9887 6.11893 19.5599 6.69011C20.1311 7.26129 20.4166 7.94793 20.4166 8.75001C20.4166 9.55209 20.1311 10.2387 19.5599 10.8099C18.9887 11.3811 18.3021 11.6667 17.5 11.6667Z" fill="white"/>
</svg>
