<svg width="300" height="53" viewBox="0 0 300 53" fill="none" xmlns="http://www.w3.org/2000/svg">
<rect width="300" height="53" rx="10" fill="#F9F9F9"/>
<path d="M121.771 34V19.4545H131.231V21.6634H124.406V25.6122H130.741V27.821H124.406V31.7912H131.288V34H121.771ZM140.418 26.8835V29H133.869V26.8835H140.418ZM143.122 34V23.0909H145.579V24.9446H145.707C145.934 24.3196 146.311 23.8319 146.836 23.4815C147.362 23.1264 147.989 22.9489 148.718 22.9489C149.457 22.9489 150.08 23.1288 150.586 23.4886C151.098 23.8437 151.458 24.3291 151.666 24.9446H151.779C152.021 24.3385 152.428 23.8556 153.001 23.4957C153.579 23.1312 154.263 22.9489 155.054 22.9489C156.057 22.9489 156.877 23.2661 157.511 23.9006C158.145 24.535 158.463 25.4607 158.463 26.6776V34H155.885V27.0753C155.885 26.3982 155.705 25.9034 155.345 25.5909C154.985 25.2737 154.545 25.1151 154.024 25.1151C153.404 25.1151 152.918 25.3092 152.568 25.6974C152.222 26.081 152.049 26.5805 152.049 27.196V34H149.528V26.9688C149.528 26.4053 149.358 25.9555 149.017 25.6193C148.681 25.2831 148.24 25.1151 147.696 25.1151C147.326 25.1151 146.99 25.2098 146.687 25.3991C146.384 25.5838 146.143 25.8466 145.963 26.1875C145.783 26.5237 145.693 26.9167 145.693 27.3665V34H143.122ZM164.21 34.2202C163.519 34.2202 162.896 34.0971 162.342 33.8509C161.793 33.5999 161.357 33.2306 161.036 32.7429C160.718 32.2552 160.56 31.6539 160.56 30.9389C160.56 30.3234 160.673 29.8144 160.901 29.4119C161.128 29.0095 161.438 28.6875 161.831 28.446C162.224 28.2045 162.667 28.0223 163.159 27.8991C163.656 27.7713 164.17 27.679 164.7 27.6222C165.339 27.5559 165.858 27.4967 166.256 27.4446C166.653 27.3878 166.942 27.3026 167.122 27.1889C167.307 27.0705 167.399 26.8883 167.399 26.642V26.5994C167.399 26.0644 167.241 25.6501 166.923 25.3565C166.606 25.063 166.149 24.9162 165.553 24.9162C164.923 24.9162 164.423 25.0535 164.054 25.3281C163.689 25.6027 163.443 25.9271 163.315 26.3011L160.915 25.9602C161.104 25.2973 161.417 24.7434 161.852 24.2983C162.288 23.8485 162.821 23.5123 163.45 23.2898C164.08 23.0625 164.776 22.9489 165.538 22.9489C166.064 22.9489 166.587 23.0104 167.108 23.1335C167.629 23.2566 168.105 23.4602 168.536 23.7443C168.966 24.0237 169.312 24.4048 169.572 24.8878C169.838 25.3707 169.97 25.9744 169.97 26.6989V34H167.499V32.5014H167.413C167.257 32.8045 167.037 33.0885 166.753 33.3537C166.473 33.6141 166.121 33.8248 165.695 33.9858C165.273 34.142 164.778 34.2202 164.21 34.2202ZM164.878 32.331C165.394 32.331 165.841 32.2292 166.22 32.0256C166.599 31.8172 166.89 31.5426 167.094 31.2017C167.302 30.8608 167.406 30.4891 167.406 30.0866V28.8011C167.326 28.8674 167.188 28.929 166.994 28.9858C166.805 29.0426 166.592 29.0923 166.355 29.1349C166.118 29.1776 165.884 29.2154 165.652 29.2486C165.42 29.2817 165.219 29.3101 165.048 29.3338C164.665 29.3859 164.321 29.4711 164.018 29.5895C163.715 29.7079 163.476 29.8736 163.301 30.0866C163.126 30.295 163.038 30.5649 163.038 30.8963C163.038 31.3698 163.211 31.7273 163.557 31.9688C163.902 32.2102 164.343 32.331 164.878 32.331ZM172.555 34V23.0909H175.126V34H172.555ZM173.848 21.5426C173.441 21.5426 173.09 21.4077 172.797 21.1378C172.503 20.8632 172.357 20.5341 172.357 20.1506C172.357 19.7623 172.503 19.4332 172.797 19.1634C173.09 18.8887 173.441 18.7514 173.848 18.7514C174.26 18.7514 174.61 18.8887 174.899 19.1634C175.193 19.4332 175.339 19.7623 175.339 20.1506C175.339 20.5341 175.193 20.8632 174.899 21.1378C174.61 21.4077 174.26 21.5426 173.848 21.5426ZM180.341 19.4545V34H177.77V19.4545H180.341Z" fill="black"/>
</svg>
