<svg width="46" height="46" viewBox="0 0 46 46" fill="none" xmlns="http://www.w3.org/2000/svg">
<circle cx="23" cy="23" r="23" fill="white"/>
<path d="M13.0833 32.9167H15.1021L28.95 19.0687L26.9312 17.05L13.0833 30.8979V32.9167ZM11.6667 35.75C11.2653 35.75 10.9288 35.6142 10.6573 35.3427C10.3858 35.0712 10.25 34.7347 10.25 34.3333V30.8979C10.25 30.5201 10.3208 30.1601 10.4625 29.8177C10.6042 29.4753 10.8049 29.1743 11.0646 28.9146L28.95 11.0646C29.2333 10.8049 29.5462 10.6042 29.8885 10.4625C30.2309 10.3208 30.591 10.25 30.9687 10.25C31.3465 10.25 31.7125 10.3208 32.0667 10.4625C32.4208 10.6042 32.7278 10.8167 32.9875 11.1L34.9354 13.0833C35.2187 13.3431 35.4253 13.65 35.5552 14.0042C35.6851 14.3583 35.75 14.7125 35.75 15.0667C35.75 15.4444 35.6851 15.8045 35.5552 16.1469C35.4253 16.4892 35.2187 16.8021 34.9354 17.0854L17.0854 34.9354C16.8257 35.1951 16.5247 35.3958 16.1823 35.5375C15.8399 35.6792 15.4799 35.75 15.1021 35.75H11.6667ZM27.9229 18.0771L26.9312 17.05L28.95 19.0687L27.9229 18.0771Z" fill="black"/>
</svg>
