<svg width="35" height="35" viewBox="0 0 35 35" fill="none" xmlns="http://www.w3.org/2000/svg">
<path d="M17.4271 26.25C17.9375 26.25 18.3689 26.0738 18.7214 25.7213C19.0738 25.3689 19.25 24.9375 19.25 24.4271C19.25 23.9167 19.0738 23.4852 18.7214 23.1328C18.3689 22.7804 17.9375 22.6042 17.4271 22.6042C16.9167 22.6042 16.4853 22.7804 16.1328 23.1328C15.7804 23.4852 15.6042 23.9167 15.6042 24.4271C15.6042 24.9375 15.7804 25.3689 16.1328 25.7213C16.4853 26.0738 16.9167 26.25 17.4271 26.25ZM17.5 32.0833C15.4827 32.0833 13.5868 31.7005 11.8125 30.9349C10.0382 30.1693 8.49481 29.1302 7.18231 27.8177C5.86981 26.5052 4.83075 24.9618 4.06512 23.1875C3.2995 21.4132 2.91669 19.5174 2.91669 17.5C2.91669 15.4826 3.2995 13.5868 4.06512 11.8125C4.83075 10.0382 5.86981 8.49478 7.18231 7.18228C8.49481 5.86978 10.0382 4.83072 11.8125 4.06509C13.5868 3.29947 15.4827 2.91666 17.5 2.91666C19.5174 2.91666 21.4132 3.29947 23.1875 4.06509C24.9618 4.83072 26.5052 5.86978 27.8177 7.18228C29.1302 8.49478 30.1693 10.0382 30.9349 11.8125C31.7005 13.5868 32.0834 15.4826 32.0834 17.5C32.0834 19.5174 31.7005 21.4132 30.9349 23.1875C30.1693 24.9618 29.1302 26.5052 27.8177 27.8177C26.5052 29.1302 24.9618 30.1693 23.1875 30.9349C21.4132 31.7005 19.5174 32.0833 17.5 32.0833ZM17.5 29.1667C20.757 29.1667 23.5156 28.0364 25.7761 25.776C28.0365 23.5156 29.1667 20.7569 29.1667 17.5C29.1667 14.243 28.0365 11.4844 25.7761 9.22395C23.5156 6.96353 20.757 5.83332 17.5 5.83332C14.2431 5.83332 11.4844 6.96353 9.22398 9.22395C6.96356 11.4844 5.83335 14.243 5.83335 17.5C5.83335 20.7569 6.96356 23.5156 9.22398 25.776C11.4844 28.0364 14.2431 29.1667 17.5 29.1667ZM17.6459 11.2292C18.2535 11.2292 18.7821 11.4236 19.2318 11.8125C19.6814 12.2014 19.9063 12.6875 19.9063 13.2708C19.9063 13.8055 19.7422 14.2795 19.4141 14.6927C19.086 15.1059 18.7153 15.4948 18.3021 15.8594C17.7431 16.3455 17.2509 16.8802 16.8255 17.4635C16.4002 18.0469 16.1875 18.7031 16.1875 19.4323C16.1875 19.7726 16.3151 20.0581 16.5703 20.2891C16.8255 20.52 17.1233 20.6354 17.4636 20.6354C17.8281 20.6354 18.138 20.5139 18.3932 20.2708C18.6485 20.0278 18.8125 19.7239 18.8854 19.3594C18.9827 18.8489 19.2014 18.3932 19.5417 17.9922C19.882 17.5911 20.2465 17.2083 20.6354 16.8437C21.1945 16.309 21.6745 15.7257 22.0755 15.0937C22.4766 14.4618 22.6771 13.7569 22.6771 12.9792C22.6771 11.7396 22.1728 10.7248 21.1641 9.93489C20.1554 9.14495 18.9827 8.74999 17.6459 8.74999C16.7222 8.74999 15.8412 8.94443 15.0026 9.33332C14.1641 9.72221 13.5261 10.3177 13.0886 11.1198C12.9184 11.4114 12.8637 11.7213 12.9245 12.0495C12.9853 12.3776 13.1493 12.6267 13.4167 12.7969C13.757 12.9913 14.1094 13.0521 14.474 12.9792C14.8386 12.9062 15.1424 12.6996 15.3854 12.3594C15.6528 11.9948 15.987 11.7153 16.388 11.5208C16.7891 11.3264 17.2084 11.2292 17.6459 11.2292Z" fill="white"/>
</svg>
