<svg width="15" height="15" viewBox="0 0 15 15" fill="none" xmlns="http://www.w3.org/2000/svg">
<path d="M2.00361 13.2138H3.14464L10.9717 5.38667L9.83069 4.24564L2.00361 12.0727V13.2138ZM1.20289 14.8152C0.976013 14.8152 0.785841 14.7385 0.632369 14.585C0.478897 14.4315 0.402161 14.2414 0.402161 14.0145V12.0727C0.402161 11.8592 0.442197 11.6557 0.522269 11.4622C0.602342 11.2687 0.715778 11.0985 0.862577 10.9517L10.9717 0.862577C11.1319 0.715778 11.3087 0.602342 11.5022 0.522269C11.6957 0.442197 11.8992 0.402161 12.1128 0.402161C12.3263 0.402161 12.5331 0.442197 12.7333 0.522269C12.9335 0.602342 13.107 0.72245 13.2538 0.882595L14.3548 2.00361C14.5149 2.15041 14.6317 2.3239 14.7051 2.52408C14.7785 2.72426 14.8152 2.92444 14.8152 3.12462C14.8152 3.33815 14.7785 3.54167 14.7051 3.73518C14.6317 3.92869 14.5149 4.10551 14.3548 4.26566L4.26566 14.3548C4.11886 14.5016 3.9487 14.615 3.75519 14.6951C3.56169 14.7752 3.35817 14.8152 3.14464 14.8152H1.20289ZM10.3912 4.82616L9.83069 4.24564L10.9717 5.38667L10.3912 4.82616Z" fill="white"/>
</svg>
