<svg width="26" height="26" viewBox="0 0 26 26" fill="none" xmlns="http://www.w3.org/2000/svg">
<path d="M13 13C11.2583 13 9.76734 12.3799 8.52706 11.1396C7.28679 9.89935 6.66665 8.40837 6.66665 6.66671C6.66665 4.92504 7.28679 3.43407 8.52706 2.19379C9.76734 0.953513 11.2583 0.333374 13 0.333374C14.7416 0.333374 16.2326 0.953513 17.4729 2.19379C18.7132 3.43407 19.3333 4.92504 19.3333 6.66671C19.3333 8.40837 18.7132 9.89935 17.4729 11.1396C16.2326 12.3799 14.7416 13 13 13ZM0.333313 22.5V21.2334C0.333313 20.3362 0.564216 19.5115 1.02602 18.7594C1.48783 18.0073 2.10137 17.4334 2.86665 17.0375C4.50276 16.2195 6.16526 15.6059 7.85415 15.1969C9.54304 14.7879 11.2583 14.5834 13 14.5834C14.7416 14.5834 16.4569 14.7879 18.1458 15.1969C19.8347 15.6059 21.4972 16.2195 23.1333 17.0375C23.8986 17.4334 24.5121 18.0073 24.9739 18.7594C25.4357 19.5115 25.6666 20.3362 25.6666 21.2334V22.5C25.6666 23.3709 25.3566 24.1164 24.7364 24.7365C24.1163 25.3566 23.3708 25.6667 22.5 25.6667H3.49998C2.62915 25.6667 1.88366 25.3566 1.26352 24.7365C0.643382 24.1164 0.333313 23.3709 0.333313 22.5ZM3.49998 22.5H22.5V21.2334C22.5 20.9431 22.4274 20.6792 22.2823 20.4417C22.1371 20.2042 21.9458 20.0195 21.7083 19.8875C20.2833 19.175 18.8451 18.6407 17.3937 18.2844C15.9423 17.9282 14.4778 17.75 13 17.75C11.5222 17.75 10.0576 17.9282 8.60623 18.2844C7.15484 18.6407 5.71665 19.175 4.29165 19.8875C4.05415 20.0195 3.86283 20.2042 3.71769 20.4417C3.57255 20.6792 3.49998 20.9431 3.49998 21.2334V22.5ZM13 9.83337C13.8708 9.83337 14.6163 9.5233 15.2364 8.90317C15.8566 8.28303 16.1666 7.53754 16.1666 6.66671C16.1666 5.79587 15.8566 5.05039 15.2364 4.43025C14.6163 3.81011 13.8708 3.50004 13 3.50004C12.1291 3.50004 11.3837 3.81011 10.7635 4.43025C10.1434 5.05039 9.83331 5.79587 9.83331 6.66671C9.83331 7.53754 10.1434 8.28303 10.7635 8.90317C11.3837 9.5233 12.1291 9.83337 13 9.83337Z" fill="#3F3F3F"/>
</svg>
