<svg width="114" height="114" viewBox="0 0 114 114" fill="none" xmlns="http://www.w3.org/2000/svg">
<circle cx="57" cy="57" r="57" fill="#D9D9D9"/>
<path d="M57 57.0001C52.4166 57.0001 48.493 55.3681 45.2291 52.1042C41.9652 48.8404 40.3333 44.9167 40.3333 40.3334C40.3333 35.7501 41.9652 31.8265 45.2291 28.5626C48.493 25.2987 52.4166 23.6667 57 23.6667C61.5833 23.6667 65.5069 25.2987 68.7708 28.5626C72.0347 31.8265 73.6666 35.7501 73.6666 40.3334C73.6666 44.9167 72.0347 48.8404 68.7708 52.1042C65.5069 55.3681 61.5833 57.0001 57 57.0001ZM23.6666 82.0001V78.6667C23.6666 76.3056 24.2743 74.1355 25.4895 72.1563C26.7048 70.1772 28.3194 68.6667 30.3333 67.6251C34.6388 65.4723 39.0138 63.8577 43.4583 62.7813C47.9027 61.7049 52.4166 61.1667 57 61.1667C61.5833 61.1667 66.0972 61.7049 70.5416 62.7813C74.9861 63.8577 79.3611 65.4723 83.6666 67.6251C85.6805 68.6667 87.2951 70.1772 88.5104 72.1563C89.7257 74.1355 90.3333 76.3056 90.3333 78.6667V82.0001C90.3333 84.2917 89.5173 86.2536 87.8854 87.8855C86.2534 89.5174 84.2916 90.3334 82 90.3334H32C29.7083 90.3334 27.7465 89.5174 26.1145 87.8855C24.4826 86.2536 23.6666 84.2917 23.6666 82.0001ZM32 82.0001H82V78.6667C82 77.9029 81.809 77.2084 81.427 76.5834C81.0451 75.9584 80.5416 75.4723 79.9166 75.1251C76.1666 73.2501 72.3819 71.8438 68.5625 70.9063C64.743 69.9688 60.8888 69.5001 57 69.5001C53.1111 69.5001 49.2569 69.9688 45.4375 70.9063C41.618 71.8438 37.8333 73.2501 34.0833 75.1251C33.4583 75.4723 32.9548 75.9584 32.5729 76.5834C32.1909 77.2084 32 77.9029 32 78.6667V82.0001ZM57 48.6667C59.2916 48.6667 61.2534 47.8508 62.8854 46.2188C64.5173 44.5869 65.3333 42.6251 65.3333 40.3334C65.3333 38.0417 64.5173 36.0799 62.8854 34.448C61.2534 32.8161 59.2916 32.0001 57 32.0001C54.7083 32.0001 52.7465 32.8161 51.1145 34.448C49.4826 36.0799 48.6666 38.0417 48.6666 40.3334C48.6666 42.6251 49.4826 44.5869 51.1145 46.2188C52.7465 47.8508 54.7083 48.6667 57 48.6667Z" fill="#AFAFAF"/>
</svg>
